<mxfile host="app.diagrams.net" modified="2023-10-16T19:18:55.615Z" agent="Mozilla/5.0 (Windows NT 10.0; Win64; x64) AppleWebKit/537.36 (KHTML, like Gecko) Chrome/118.0.0.0 Safari/537.36" etag="jg0j_LJhg9SloLheoqvr" version="22.0.4" type="device">
  <diagram name="Страница — 1" id="o8DwsD4q_UCmekTN6hks">
    <mxGraphModel dx="-981" dy="763" grid="1" gridSize="10" guides="1" tooltips="1" connect="1" arrows="1" fold="1" page="1" pageScale="1" pageWidth="827" pageHeight="1169" math="0" shadow="0">
      <root>
        <mxCell id="0" />
        <mxCell id="1" parent="0" />
        <mxCell id="ykUxlusXsKbkb0VpRQLI-13" value="Результат&lt;br style=&quot;font-size: 13px;&quot;&gt;и время&lt;br style=&quot;font-size: 13px;&quot;&gt;проверки" style="edgeStyle=orthogonalEdgeStyle;rounded=0;orthogonalLoop=1;jettySize=auto;html=1;exitX=1;exitY=0.25;exitDx=0;exitDy=0;entryX=0;entryY=0.5;entryDx=0;entryDy=0;fontFamily=GOSTRUS Type A;fontSize=13;fontStyle=2;movable=1;resizable=1;rotatable=1;deletable=1;editable=1;locked=0;connectable=1;endArrow=open;endFill=0;" parent="1" source="ykUxlusXsKbkb0VpRQLI-1" target="ykUxlusXsKbkb0VpRQLI-3" edge="1">
          <mxGeometry x="0.0035" y="32" relative="1" as="geometry">
            <mxPoint as="offset" />
          </mxGeometry>
        </mxCell>
        <mxCell id="ykUxlusXsKbkb0VpRQLI-14" value="Аудио-сигнал" style="edgeStyle=orthogonalEdgeStyle;rounded=0;orthogonalLoop=1;jettySize=auto;html=1;exitX=1;exitY=0.75;exitDx=0;exitDy=0;entryX=0;entryY=0.5;entryDx=0;entryDy=0;fontFamily=GOSTRUS Type A;fontSize=13;fontStyle=2;movable=1;resizable=1;rotatable=1;deletable=1;editable=1;locked=0;connectable=1;endArrow=open;endFill=0;" parent="1" source="ykUxlusXsKbkb0VpRQLI-1" target="ykUxlusXsKbkb0VpRQLI-5" edge="1">
          <mxGeometry x="-0.0699" y="18" relative="1" as="geometry">
            <mxPoint as="offset" />
          </mxGeometry>
        </mxCell>
        <mxCell id="_XdvEspnEwE6ffSi1a87-3" value="&#xa;&lt;span style=&quot;color: rgb(0, 0, 0); font-size: 13px; font-variant-ligatures: normal; font-variant-caps: normal; font-weight: 400; letter-spacing: normal; orphans: 2; text-align: center; text-indent: 0px; text-transform: none; widows: 2; word-spacing: 0px; -webkit-text-stroke-width: 0px; background-color: rgb(255, 255, 255); text-decoration-thickness: initial; text-decoration-style: initial; text-decoration-color: initial; float: none; display: inline !important;&quot;&gt;Результат&lt;/span&gt;&lt;br style=&quot;border-color: var(--border-color); color: rgb(0, 0, 0); font-size: 13px; font-variant-ligatures: normal; font-variant-caps: normal; font-weight: 400; letter-spacing: normal; orphans: 2; text-align: center; text-indent: 0px; text-transform: none; widows: 2; word-spacing: 0px; -webkit-text-stroke-width: 0px; text-decoration-thickness: initial; text-decoration-style: initial; text-decoration-color: initial;&quot;&gt;&lt;span style=&quot;color: rgb(0, 0, 0); font-size: 13px; font-variant-ligatures: normal; font-variant-caps: normal; font-weight: 400; letter-spacing: normal; orphans: 2; text-align: center; text-indent: 0px; text-transform: none; widows: 2; word-spacing: 0px; -webkit-text-stroke-width: 0px; background-color: rgb(255, 255, 255); text-decoration-thickness: initial; text-decoration-style: initial; text-decoration-color: initial; float: none; display: inline !important;&quot;&gt;и время&lt;/span&gt;&lt;br style=&quot;border-color: var(--border-color); color: rgb(0, 0, 0); font-size: 13px; font-variant-ligatures: normal; font-variant-caps: normal; font-weight: 400; letter-spacing: normal; orphans: 2; text-align: center; text-indent: 0px; text-transform: none; widows: 2; word-spacing: 0px; -webkit-text-stroke-width: 0px; text-decoration-thickness: initial; text-decoration-style: initial; text-decoration-color: initial;&quot;&gt;&lt;span style=&quot;color: rgb(0, 0, 0); font-size: 13px; font-variant-ligatures: normal; font-variant-caps: normal; font-weight: 400; letter-spacing: normal; orphans: 2; text-align: center; text-indent: 0px; text-transform: none; widows: 2; word-spacing: 0px; -webkit-text-stroke-width: 0px; background-color: rgb(255, 255, 255); text-decoration-thickness: initial; text-decoration-style: initial; text-decoration-color: initial; float: none; display: inline !important;&quot;&gt;проверки&lt;/span&gt;&#xa;&#xa;" style="edgeStyle=orthogonalEdgeStyle;rounded=0;orthogonalLoop=1;jettySize=auto;html=1;exitX=0.25;exitY=1;exitDx=0;exitDy=0;entryX=0.25;entryY=0;entryDx=0;entryDy=0;fontFamily=GOSTRUS Type A;fontStyle=2;movable=1;resizable=1;rotatable=1;deletable=1;editable=1;locked=0;connectable=1;endArrow=open;endFill=0;" edge="1" parent="1" source="ykUxlusXsKbkb0VpRQLI-1" target="ykUxlusXsKbkb0VpRQLI-2">
          <mxGeometry y="-27" relative="1" as="geometry">
            <mxPoint as="offset" />
          </mxGeometry>
        </mxCell>
        <mxCell id="ykUxlusXsKbkb0VpRQLI-1" value="ATmega8515" style="rounded=0;whiteSpace=wrap;html=1;fontFamily=GOSTRUS Type A;fontSize=13;fontStyle=2;movable=1;resizable=1;rotatable=1;deletable=1;editable=1;locked=0;connectable=1;" parent="1" vertex="1">
          <mxGeometry x="2820" y="140.00000000000003" width="150" height="170" as="geometry" />
        </mxCell>
        <mxCell id="ykUxlusXsKbkb0VpRQLI-7" value="Выбор алгоритма" style="edgeStyle=orthogonalEdgeStyle;rounded=0;orthogonalLoop=1;jettySize=auto;html=1;exitX=0;exitY=0.5;exitDx=0;exitDy=0;entryX=0;entryY=0.75;entryDx=0;entryDy=0;fontFamily=GOSTRUS Type A;fontSize=13;fontStyle=2;movable=1;resizable=1;rotatable=1;deletable=1;editable=1;locked=0;connectable=1;endArrow=open;endFill=0;" parent="1" source="ykUxlusXsKbkb0VpRQLI-2" target="ykUxlusXsKbkb0VpRQLI-1" edge="1">
          <mxGeometry x="0.6464" y="18" relative="1" as="geometry">
            <mxPoint as="offset" />
            <Array as="points">
              <mxPoint x="2720" y="520" />
              <mxPoint x="2720" y="268" />
            </Array>
          </mxGeometry>
        </mxCell>
        <mxCell id="ykUxlusXsKbkb0VpRQLI-15" value="Эталонная&lt;br style=&quot;font-size: 13px;&quot;&gt;контрольная&lt;br style=&quot;font-size: 13px;&quot;&gt;сумма" style="edgeStyle=orthogonalEdgeStyle;rounded=0;orthogonalLoop=1;jettySize=auto;html=1;exitX=0.75;exitY=0;exitDx=0;exitDy=0;entryX=0.75;entryY=1;entryDx=0;entryDy=0;fontFamily=GOSTRUS Type A;fontSize=13;fontStyle=2;movable=1;resizable=1;rotatable=1;deletable=1;editable=1;locked=0;connectable=1;endArrow=open;endFill=0;" parent="1" source="ykUxlusXsKbkb0VpRQLI-2" target="ykUxlusXsKbkb0VpRQLI-1" edge="1">
          <mxGeometry x="0.1356" y="-37" relative="1" as="geometry">
            <mxPoint as="offset" />
            <Array as="points" />
          </mxGeometry>
        </mxCell>
        <mxCell id="ykUxlusXsKbkb0VpRQLI-2" value="ПЭВМ" style="rounded=0;whiteSpace=wrap;html=1;fontFamily=GOSTRUS Type A;fontSize=13;fontStyle=2;movable=1;resizable=1;rotatable=1;deletable=1;editable=1;locked=0;connectable=1;" parent="1" vertex="1">
          <mxGeometry x="2820" y="490" width="150" height="60" as="geometry" />
        </mxCell>
        <mxCell id="ykUxlusXsKbkb0VpRQLI-3" value="ЖК-дисплей" style="rounded=0;whiteSpace=wrap;html=1;fontFamily=GOSTRUS Type A;fontSize=13;fontStyle=2;movable=1;resizable=1;rotatable=1;deletable=1;editable=1;locked=0;connectable=1;" parent="1" vertex="1">
          <mxGeometry x="3120" y="152.00000000000003" width="120" height="60" as="geometry" />
        </mxCell>
        <mxCell id="ykUxlusXsKbkb0VpRQLI-6" value="Выбор&amp;nbsp; алгоритма" style="edgeStyle=orthogonalEdgeStyle;rounded=0;orthogonalLoop=1;jettySize=auto;html=1;exitX=1;exitY=0.5;exitDx=0;exitDy=0;entryX=0;entryY=0.5;entryDx=0;entryDy=0;fontFamily=GOSTRUS Type A;fontSize=13;fontStyle=2;movable=1;resizable=1;rotatable=1;deletable=1;editable=1;locked=0;connectable=1;endArrow=open;endFill=0;" parent="1" source="ykUxlusXsKbkb0VpRQLI-4" target="ykUxlusXsKbkb0VpRQLI-1" edge="1">
          <mxGeometry x="-0.0667" y="15" relative="1" as="geometry">
            <mxPoint as="offset" />
          </mxGeometry>
        </mxCell>
        <mxCell id="ykUxlusXsKbkb0VpRQLI-4" value="Кнопки управления" style="rounded=0;whiteSpace=wrap;html=1;fontFamily=GOSTRUS Type A;fontSize=13;fontStyle=2;movable=1;resizable=1;rotatable=1;deletable=1;editable=1;locked=0;connectable=1;" parent="1" vertex="1">
          <mxGeometry x="2550" y="195.00000000000003" width="120" height="60" as="geometry" />
        </mxCell>
        <mxCell id="ykUxlusXsKbkb0VpRQLI-5" value="SPEAKER" style="rounded=0;whiteSpace=wrap;html=1;fontFamily=GOSTRUS Type A;fontSize=13;fontStyle=2;movable=1;resizable=1;rotatable=1;deletable=1;editable=1;locked=0;connectable=1;" parent="1" vertex="1">
          <mxGeometry x="3120" y="238.00000000000003" width="120" height="60" as="geometry" />
        </mxCell>
        <mxCell id="ykUxlusXsKbkb0VpRQLI-11" value="Данные&lt;br style=&quot;font-size: 13px;&quot;&gt;для&lt;br style=&quot;font-size: 13px;&quot;&gt;проверки" style="edgeStyle=orthogonalEdgeStyle;rounded=0;orthogonalLoop=1;jettySize=auto;html=1;exitX=0.5;exitY=1;exitDx=0;exitDy=0;entryX=0.5;entryY=0;entryDx=0;entryDy=0;fontFamily=GOSTRUS Type A;fontSize=13;fontStyle=2;movable=1;resizable=1;rotatable=1;deletable=1;editable=1;locked=0;connectable=1;endArrow=open;endFill=0;" parent="1" source="ykUxlusXsKbkb0VpRQLI-10" target="ykUxlusXsKbkb0VpRQLI-1" edge="1">
          <mxGeometry y="25" relative="1" as="geometry">
            <mxPoint as="offset" />
          </mxGeometry>
        </mxCell>
        <mxCell id="ykUxlusXsKbkb0VpRQLI-10" value="Внешний диск" style="rounded=0;whiteSpace=wrap;html=1;fontFamily=GOSTRUS Type A;fontSize=13;fontStyle=2;movable=1;resizable=1;rotatable=1;deletable=1;editable=1;locked=0;connectable=1;" parent="1" vertex="1">
          <mxGeometry x="2820" y="20" width="150" height="40" as="geometry" />
        </mxCell>
      </root>
    </mxGraphModel>
  </diagram>
</mxfile>
